<svg width="122" height="56" viewBox="0 0 122 56" fill="none" xmlns="http://www.w3.org/2000/svg">
<g clip-path="url(#clip0)">
<path d="M19.4158 51.7767C19.4158 52.3487 19.5042 52.863 19.6809 53.3198C19.8617 53.7725 20.1083 54.1572 20.4207 54.4741C20.7371 54.7868 21.107 55.0276 21.5304 55.1963C21.9578 55.3609 22.4202 55.4432 22.9175 55.4432C23.1764 55.4432 23.4353 55.3856 23.6942 55.2704C23.9532 55.151 24.1977 55.0008 24.4278 54.8198C24.658 54.6346 24.8656 54.4288 25.0505 54.2025C25.2396 53.9762 25.3896 53.754 25.5005 53.5359L26.0369 53.9062C25.8643 54.186 25.6649 54.4535 25.4389 54.7087C25.2128 54.9638 24.9519 55.1901 24.6559 55.3876C24.36 55.5811 24.0271 55.7354 23.6572 55.8506C23.2915 55.9699 22.8846 56.0296 22.4366 56.0296C21.779 56.0296 21.181 55.9164 20.6426 55.6901C20.1042 55.4638 19.6419 55.1572 19.2555 54.7704C18.8733 54.3836 18.5774 53.933 18.3678 53.4186C18.1582 52.9001 18.0534 52.3528 18.0534 51.7767C18.0534 51.394 18.1006 51.0215 18.1952 50.6594C18.2938 50.2932 18.4335 49.9516 18.6144 49.6348C18.7993 49.3138 19.0213 49.0216 19.2802 48.7582C19.5432 48.4908 19.8391 48.2624 20.1679 48.0731C20.4967 47.8797 20.8563 47.7315 21.2468 47.6287C21.6413 47.5217 22.0605 47.4682 22.5044 47.4682C22.9195 47.4682 23.3038 47.5278 23.6572 47.6472C24.0148 47.7624 24.3415 47.9188 24.6375 48.1163C24.9334 48.3097 25.1964 48.536 25.4266 48.7953C25.6608 49.0504 25.8643 49.3158 26.0369 49.5916L25.5252 49.9681C25.369 49.6883 25.1841 49.4311 24.9704 49.1965C24.7608 48.9619 24.5368 48.7603 24.2984 48.5916C24.0641 48.4229 23.8237 48.2912 23.5771 48.1965C23.3305 48.1019 23.0962 48.0546 22.8743 48.0546C22.4017 48.0546 21.9557 48.141 21.5365 48.3138C21.1173 48.4867 20.7495 48.7336 20.433 49.0545C20.1207 49.3755 19.872 49.7664 19.6871 50.2273C19.5062 50.6841 19.4158 51.2006 19.4158 51.7767Z" fill="#553B2C"/>
<path d="M32.1894 56.0296C31.5729 56.0296 30.9975 55.9164 30.4633 55.6901C29.9331 55.4638 29.4707 55.1551 29.0762 54.7642C28.6816 54.3692 28.3713 53.9103 28.1453 53.3877C27.9192 52.861 27.8062 52.2993 27.8062 51.7026C27.8062 51.1141 27.9192 50.5627 28.1453 50.0483C28.3713 49.5339 28.6816 49.0854 29.0762 48.7027C29.4707 48.32 29.9331 48.0196 30.4633 47.8015C30.9975 47.5793 31.5729 47.4682 32.1894 47.4682C32.8059 47.4682 33.3813 47.5793 33.9156 47.8015C34.4499 48.0196 34.9143 48.32 35.3088 48.7027C35.7034 49.0854 36.0137 49.5339 36.2397 50.0483C36.4658 50.5627 36.5788 51.1141 36.5788 51.7026C36.5788 52.2993 36.4658 52.861 36.2397 53.3877C36.0137 53.9103 35.7034 54.3692 35.3088 54.7642C34.9143 55.1551 34.4499 55.4638 33.9156 55.6901C33.3813 55.9164 32.8059 56.0296 32.1894 56.0296ZM32.1894 55.6222C32.6785 55.6222 33.11 55.5255 33.484 55.3321C33.8621 55.1346 34.1786 54.8609 34.4334 54.5111C34.6882 54.1614 34.8814 53.7478 35.0129 53.2704C35.1444 52.7931 35.2102 52.2705 35.2102 51.7026C35.2102 51.1388 35.1444 50.6224 35.0129 50.1533C34.8814 49.6841 34.6882 49.2809 34.4334 48.9434C34.1786 48.6019 33.8621 48.3385 33.484 48.1533C33.11 47.964 32.6785 47.8694 32.1894 47.8694C31.6962 47.8694 31.2606 47.964 30.8825 48.1533C30.5044 48.3385 30.1879 48.6019 29.9331 48.9434C29.6824 49.2809 29.4913 49.6841 29.3597 50.1533C29.2323 50.6224 29.1686 51.1388 29.1686 51.7026C29.1686 52.2705 29.2323 52.7931 29.3597 53.2704C29.4913 53.7478 29.6824 54.1614 29.9331 54.5111C30.1879 54.8609 30.5044 55.1346 30.8825 55.3321C31.2606 55.5255 31.6962 55.6222 32.1894 55.6222Z" fill="#553B2C"/>
<path d="M43.7054 47.6533V48.1842H39.7167V51.11H42.6019V51.6409H39.7167V55.8383H38.5885V47.6533H43.7054Z" fill="#553B2C"/>
<path d="M50.1662 47.6533V48.1842H46.1775V51.11H49.0627V51.6409H46.1775V55.8383H45.0493V47.6533H50.1662Z" fill="#553B2C"/>
<path d="M57.0338 47.6533V48.1842H52.7246V51.11H55.6097V51.6409H52.7246V55.3074H57.0338V55.8383H51.5964V47.6533H57.0338Z" fill="#553B2C"/>
<path d="M64.333 47.6533V48.1842H60.0238V51.11H62.9089V51.6409H60.0238V55.3074H64.333V55.8383H58.8956V47.6533H64.333Z" fill="#553B2C"/>
<path d="M74.2955 55.5111C74.5133 55.5111 74.727 55.4844 74.9366 55.4309C75.1503 55.3732 75.3394 55.2909 75.5038 55.184C75.6723 55.0728 75.8079 54.9391 75.9107 54.7827C76.0134 54.6222 76.0648 54.4371 76.0648 54.2272C76.0648 54.0009 76.0052 53.7951 75.886 53.6099C75.7668 53.4248 75.6086 53.254 75.4113 53.0976C75.214 52.9371 74.9859 52.7869 74.727 52.647C74.4722 52.503 74.2091 52.361 73.9379 52.2211C73.6502 52.0729 73.3646 51.9207 73.081 51.7643C72.8015 51.6038 72.5487 51.4248 72.3227 51.2273C72.1008 51.0257 71.9199 50.7993 71.7802 50.5483C71.6446 50.2932 71.5768 49.9969 71.5768 49.6595C71.5768 49.3467 71.6322 49.0566 71.7432 48.7891C71.8542 48.5216 72.0165 48.2912 72.2302 48.0978C72.4481 47.9003 72.7152 47.7459 73.0317 47.6348C73.3481 47.5237 73.7098 47.4682 74.1167 47.4682C74.4825 47.4682 74.8092 47.5093 75.0969 47.5916C75.3887 47.6739 75.6435 47.7974 75.8613 47.962C76.0833 48.1225 76.2723 48.3221 76.4285 48.5607C76.5847 48.7994 76.7141 49.0751 76.8169 49.3879L76.3237 49.6162C76.2456 49.3776 76.1408 49.1595 76.0093 48.9619C75.8819 48.7603 75.7257 48.5895 75.5408 48.4496C75.3558 48.3056 75.14 48.1945 74.8934 48.1163C74.6469 48.0381 74.3674 47.999 74.055 47.999C73.7756 47.999 73.531 48.0361 73.3214 48.1101C73.1118 48.1801 72.9371 48.2747 72.7974 48.3941C72.6618 48.5093 72.559 48.641 72.4892 48.7891C72.4193 48.9331 72.3843 49.0813 72.3843 49.2335C72.3843 49.4187 72.4439 49.5957 72.5631 49.7644C72.6864 49.929 72.8467 50.0874 73.044 50.2397C73.2454 50.3919 73.4735 50.5401 73.7283 50.6841C73.9831 50.824 74.2441 50.9639 74.5112 51.1038C74.8071 51.2561 75.1031 51.4187 75.399 51.5915C75.6949 51.7602 75.962 51.9495 76.2004 52.1594C76.4388 52.3651 76.6319 52.5935 76.7799 52.8445C76.932 53.0914 77.008 53.3692 77.008 53.6778C77.008 54.0029 76.9484 54.3095 76.8292 54.5976C76.71 54.8815 76.5333 55.1305 76.299 55.3444C76.0648 55.5543 75.7709 55.721 75.4175 55.8444C75.0681 55.9679 74.6612 56.0296 74.1968 56.0296C73.8269 56.0296 73.494 55.9864 73.1981 55.9C72.9022 55.8136 72.6392 55.6881 72.409 55.5234C72.183 55.3547 71.9877 55.151 71.8233 54.9124C71.6631 54.6696 71.5274 54.3939 71.4165 54.0852L71.9405 53.8692C72.0227 54.1284 72.1378 54.3589 72.2857 54.5605C72.4378 54.7622 72.6145 54.935 72.8159 55.079C73.0173 55.2189 73.2433 55.3259 73.494 55.4C73.7447 55.4741 74.0119 55.5111 74.2955 55.5111Z" fill="#553B2C"/>
<path d="M80.2939 55.8383H79.1657V47.6533H80.2939V51.3816H84.6463V47.6533H85.7744V55.8383H84.6463V51.9125H80.2939V55.8383Z" fill="#553B2C"/>
<path d="M92.2722 56.0296C91.6557 56.0296 91.0803 55.9164 90.5461 55.6901C90.0159 55.4638 89.5535 55.1551 89.159 54.7642C88.7644 54.3692 88.4541 53.9103 88.2281 53.3877C88.002 52.861 87.889 52.2993 87.889 51.7026C87.889 51.1141 88.002 50.5627 88.2281 50.0483C88.4541 49.5339 88.7644 49.0854 89.159 48.7027C89.5535 48.32 90.0159 48.0196 90.5461 47.8015C91.0803 47.5793 91.6557 47.4682 92.2722 47.4682C92.8887 47.4682 93.4641 47.5793 93.9984 47.8015C94.5327 48.0196 94.9971 48.32 95.3916 48.7027C95.7862 49.0854 96.0965 49.5339 96.3225 50.0483C96.5486 50.5627 96.6616 51.1141 96.6616 51.7026C96.6616 52.2993 96.5486 52.861 96.3225 53.3877C96.0965 53.9103 95.7862 54.3692 95.3916 54.7642C94.9971 55.1551 94.5327 55.4638 93.9984 55.6901C93.4641 55.9164 92.8887 56.0296 92.2722 56.0296ZM92.2722 55.6222C92.7613 55.6222 93.1928 55.5255 93.5668 55.3321C93.9449 55.1346 94.2614 54.8609 94.5162 54.5111C94.771 54.1614 94.9642 53.7478 95.0957 53.2704C95.2272 52.7931 95.293 52.2705 95.293 51.7026C95.293 51.1388 95.2272 50.6224 95.0957 50.1533C94.9642 49.6841 94.771 49.2809 94.5162 48.9434C94.2614 48.6019 93.9449 48.3385 93.5668 48.1533C93.1928 47.964 92.7613 47.8694 92.2722 47.8694C91.779 47.8694 91.3434 47.964 90.9653 48.1533C90.5871 48.3385 90.2707 48.6019 90.0159 48.9434C89.7652 49.2809 89.5741 49.6841 89.4425 50.1533C89.3151 50.6224 89.2514 51.1388 89.2514 51.7026C89.2514 52.2705 89.3151 52.7931 89.4425 53.2704C89.5741 53.7478 89.7652 54.1614 90.0159 54.5111C90.2707 54.8609 90.5871 55.1346 90.9653 55.3321C91.3434 55.5255 91.779 55.6222 92.2722 55.6222Z" fill="#553B2C"/>
<path d="M98.7577 47.6533H101.224C101.635 47.6533 102.019 47.7048 102.376 47.8077C102.738 47.9105 103.05 48.0628 103.313 48.2644C103.581 48.462 103.79 48.7068 103.942 48.999C104.094 49.287 104.17 49.6183 104.17 49.9928C104.17 50.3631 104.094 50.6923 103.942 50.9804C103.794 51.2643 103.597 51.503 103.35 51.6964C103.108 51.8898 102.833 52.0359 102.524 52.1347C102.216 52.2334 101.904 52.2828 101.587 52.2828C101.448 52.2828 101.302 52.2766 101.15 52.2643C100.998 52.252 100.848 52.2355 100.7 52.2149C100.552 52.1902 100.408 52.1655 100.268 52.1408C100.128 52.112 100.001 52.0832 99.8858 52.0544V55.8383H98.7577V47.6533ZM99.8858 51.5236C100.075 51.5935 100.266 51.6532 100.459 51.7026C100.656 51.752 100.854 51.7767 101.051 51.7767C101.367 51.7767 101.643 51.7335 101.877 51.647C102.115 51.5565 102.313 51.4351 102.469 51.2829C102.629 51.1265 102.748 50.9454 102.826 50.7397C102.905 50.5298 102.944 50.3076 102.944 50.073C102.944 49.7973 102.892 49.5483 102.789 49.3261C102.687 49.1039 102.547 48.9146 102.37 48.7582C102.194 48.5978 101.986 48.4743 101.748 48.3879C101.509 48.3015 101.254 48.2583 100.983 48.2583H99.8858V51.5236Z" fill="#553B2C"/>
<path d="M121.992 24.7654C121.837 28.0919 119.438 30.6816 116.633 30.5504C113.828 30.418 111.68 27.6164 111.835 24.291C111.99 20.9645 114.39 18.3736 117.194 18.506C120 18.636 122.147 21.4389 121.992 24.7654Z" fill="#B88C43"/>
<path d="M117.79 18.5758C117.79 18.5758 117.935 18.7215 118.126 19.0237C118.22 19.1742 118.329 19.3644 118.432 19.5944C118.48 19.7112 118.53 19.8352 118.584 19.9676C118.629 20.1025 118.669 20.2457 118.712 20.3974C118.743 20.5515 118.783 20.7117 118.812 20.8802C118.83 21.05 118.855 21.2269 118.861 21.4099C118.872 21.776 118.849 22.1672 118.768 22.5645C118.691 22.9618 118.559 23.3628 118.38 23.7468C118.281 23.9334 118.196 24.1333 118.079 24.3115L117.72 24.8424L117.389 25.3072C117.271 25.4709 117.203 25.613 117.105 25.7647C116.932 26.0681 116.767 26.3955 116.645 26.7146C116.571 26.8723 116.529 27.0372 116.474 27.1962C116.414 27.3527 116.385 27.5128 116.342 27.6681C116.266 27.9799 116.216 28.2821 116.183 28.5651C116.155 28.8492 116.14 29.1117 116.136 29.3488C116.14 29.5848 116.145 29.7931 116.158 29.9641C116.173 30.1362 116.185 30.2735 116.199 30.3662L116.22 30.5094C116.22 30.5094 116.101 30.3433 115.961 30.0134C115.893 29.8485 115.814 29.6438 115.751 29.4018C115.686 29.1574 115.626 28.8781 115.599 28.5663C115.567 28.2557 115.554 27.9125 115.585 27.5525C115.614 27.1913 115.678 26.8097 115.79 26.428C115.846 26.2378 115.9 26.0404 115.986 25.8538C116.066 25.6647 116.133 25.4709 116.244 25.2831C116.349 25.1001 116.449 24.8858 116.563 24.7293L116.913 24.2224L117.226 23.7757C117.325 23.624 117.406 23.4639 117.497 23.311C117.661 22.9944 117.797 22.6729 117.895 22.3478C117.995 22.0252 118.06 21.7001 118.099 21.3859C118.121 21.2294 118.119 21.0752 118.135 20.9235C118.141 20.7731 118.136 20.6274 118.137 20.4841C118.127 20.342 118.117 20.206 118.107 20.0772C118.091 19.9459 118.076 19.8231 118.061 19.7063C118.019 19.4752 117.983 19.2705 117.941 19.1032C117.897 18.9358 117.864 18.8022 117.835 18.7143L117.79 18.5758Z" fill="#FFFDFC"/>
<path d="M74.709 11.1385C80.4855 3.26466 90.55 0.839878 97.191 5.72433C103.831 10.6076 104.531 20.9496 98.7542 28.8246C92.9765 36.6985 82.9108 39.1221 76.2709 34.2388C69.631 29.3544 68.9312 19.0124 74.709 11.1385Z" fill="white"/>
<path d="M74.709 11.139L75.1924 11.4954C78.843 6.51699 84.2504 3.80207 89.2982 3.80448C92.0133 3.80568 94.6214 4.58344 96.8351 6.20998C100.283 8.74551 102.063 12.8329 102.066 17.302C102.066 21.0223 100.821 24.9905 98.2697 28.4675C94.619 33.4459 89.2116 36.162 84.1638 36.1584C81.4487 36.1584 78.8406 35.3806 76.6269 33.7529C73.1807 31.2174 71.3987 27.1299 71.3963 22.6608C71.3963 18.9406 72.6408 14.9736 75.1924 11.4954L74.709 11.139L74.2244 10.7826C71.5249 14.4631 70.1938 18.6721 70.1938 22.6608C70.1914 27.443 72.1189 31.9313 75.915 34.7245C78.3464 36.5124 81.2202 37.3636 84.1638 37.3623C89.6409 37.3599 95.3754 34.444 99.2376 29.1803C101.937 25.501 103.268 21.2907 103.268 17.302C103.271 12.5199 101.343 8.03158 97.547 5.2396C95.1156 3.45052 92.2418 2.59932 89.2982 2.60052C83.8211 2.60293 78.0867 5.52011 74.2244 10.7826L74.709 11.139Z" fill="#553B2C"/>
<path d="M74.9315 33.0979C74.4204 29.9327 75.2417 26.5099 77.1187 23.6758C78.9741 20.7995 81.9898 18.7119 85.1703 17.6079C87.8818 16.6652 90.3828 15.342 92.5821 13.4891C94.7754 11.6386 96.6668 9.30657 98.1314 6.49533C98.1338 9.71592 96.7306 12.9064 94.6058 15.4793C92.4583 18.0557 89.4774 19.9544 86.3378 21.0235C83.6973 21.9602 81.2695 23.3507 79.3468 25.4167C77.3808 27.449 75.9235 30.0905 74.9315 33.0979Z" fill="#553B2C"/>
<path d="M76.1568 33.9102C76.1568 33.9102 88.4806 39.0258 96.9939 26.1615C105.506 13.296 97.1911 5.72436 97.1911 5.72436C97.1911 5.72436 107.835 13.6753 99.4613 27.7989C99.4613 27.7989 88.655 43.0253 76.1568 33.9102Z" fill="#553B2C"/>
<path d="M92.2875 5.28657C90.8446 5.13006 89.4004 5.18305 87.9876 5.38892C86.5783 5.61045 85.1823 5.93431 83.8632 6.47248C82.5477 7.00704 81.2551 7.62948 80.0755 8.44336C78.8634 9.21028 77.7824 10.1626 76.681 11.1161C77.1512 10.5647 77.6249 10.0061 78.1396 9.48718C78.6903 9.01041 79.2025 8.47827 79.8098 8.06411C80.9569 7.14067 82.2904 6.47609 83.6468 5.91144C85.0175 5.36845 86.4737 5.0482 87.9359 4.93021C89.398 4.81463 90.8855 4.88445 92.2875 5.28657Z" fill="#553B2C"/>
<path d="M91.3291 20.879C90.7231 21.5243 89.9872 22.0528 89.208 22.4815C88.424 22.9077 87.604 23.2761 86.7466 23.5349C85.0933 24.0261 83.5181 24.8123 82.1882 25.8622L82.1677 25.8778C81.2899 26.5605 80.4506 27.3647 79.6883 28.2171C78.9283 29.0755 78.2045 29.9725 77.5323 30.9176C78.0734 29.893 78.7011 28.9082 79.4201 27.9908C80.1524 27.0818 80.9112 26.2005 81.8479 25.4456L81.8274 25.4625C82.5176 24.8436 83.2776 24.3753 84.076 23.9527C84.8792 23.5542 85.733 23.2243 86.5951 23.0136C87.4296 22.7848 88.2581 22.5224 89.0505 22.166C89.8393 21.8036 90.6209 21.4075 91.3291 20.879Z" fill="#553B2C"/>
<path d="M97.2019 26.6568L95.0916 24.2176L97.832 26.0115L97.2019 26.6568Z" fill="#553B2C"/>
<path d="M98.1061 26.4052C97.399 25.3071 96.5441 24.2561 95.6435 23.2568C96.7473 24.0358 97.8127 24.8653 98.8083 25.8369L98.1061 26.4052Z" fill="#553B2C"/>
<path d="M98.2732 25.2987C97.7405 24.2549 97.0335 23.2664 96.2531 22.337C97.2379 23.0473 98.1842 23.8395 99.0175 24.7894L98.2732 25.2987Z" fill="#553B2C"/>
<path d="M98.7133 24.3548C98.1698 23.2568 97.4315 22.2214 96.6103 21.2522C97.6359 22.0023 98.6171 22.845 99.4661 23.8576L98.7133 24.3548Z" fill="#553B2C"/>
<path d="M99.1245 23.1641C98.6159 22.1696 97.9522 21.2257 97.2151 20.3348C98.1566 21.0054 99.0596 21.7567 99.864 22.6476L99.1245 23.1641Z" fill="#553B2C"/>
<path d="M100.142 23.1099L99.6019 22.0649C99.418 21.7326 99.2183 21.4063 99.0043 21.0873C98.5762 20.448 98.0905 19.84 97.5758 19.2524C98.1927 19.7292 98.7927 20.2385 99.3518 20.7995C99.632 21.0801 99.9013 21.3738 100.159 21.6808L100.883 22.5946L100.142 23.1099Z" fill="#553B2C"/>
<path d="M100.297 21.8337L99.763 20.82C99.5814 20.4961 99.3866 20.1783 99.1786 19.8665C98.7614 19.2416 98.2888 18.6481 97.7898 18.075C98.3922 18.5397 98.979 19.0333 99.5249 19.5787C99.7991 19.8508 100.064 20.1361 100.317 20.4323L101.036 21.316L100.297 21.8337Z" fill="#553B2C"/>
<path d="M100.393 20.5178C100.036 19.8339 99.7126 19.2211 99.2953 18.6083C98.8901 17.9991 98.432 17.42 97.9462 16.859C98.5342 17.3092 99.1065 17.7908 99.6428 18.3194C100.178 18.8359 100.683 19.4487 101.133 20.0001L100.393 20.5178Z" fill="#553B2C"/>
<path d="M100.644 19.3042C100.298 18.6481 99.9735 18.0473 99.5682 17.4513C99.1714 16.8602 98.7289 16.2919 98.2576 15.7441C98.8323 16.1824 99.3891 16.6507 99.9145 17.1624C100.44 17.6644 100.934 18.2472 101.384 18.7877L100.644 19.3042Z" fill="#553B2C"/>
<path d="M100.833 18.0485C100.497 17.4212 100.171 16.8325 99.7787 16.2534C99.3915 15.6791 98.9622 15.1241 98.5053 14.5883C99.0644 15.0145 99.6079 15.4696 100.123 15.962C100.637 16.4496 101.123 17.0035 101.573 17.532L100.833 18.0485Z" fill="#553B2C"/>
<path d="M101.182 16.8999C100.556 15.6996 99.8076 14.5847 98.9142 13.5397C100.006 14.356 101.029 15.3264 101.921 16.3846L101.182 16.8999Z" fill="#553B2C"/>
<path d="M101.171 15.5142C100.561 14.3584 99.8244 13.2712 98.9634 12.2527C100.026 13.0473 101.026 13.9707 101.911 14.9965L101.171 15.5142Z" fill="#553B2C"/>
<path d="M100.932 13.9755C100.343 12.8619 99.6104 11.8084 98.7843 10.8127C99.816 11.5881 100.797 12.4621 101.671 13.4578L100.932 13.9755Z" fill="#553B2C"/>
<path d="M100.7 12.4405C100.133 11.3678 99.4048 10.3492 98.6124 9.37882C99.6128 10.1337 100.577 10.956 101.439 11.924L100.7 12.4405Z" fill="#553B2C"/>
<path d="M94.8162 31.1584C94.1428 30.7418 93.627 30.2566 93.0835 29.7811L91.4915 28.3411L93.3468 29.4151C93.9625 29.7606 94.5938 30.1302 95.1998 30.3409L94.8162 31.1584Z" fill="#553B2C"/>
<path d="M95.6411 30.2735L92.3212 27.555L96.0824 29.4849L95.6411 30.2735Z" fill="#553B2C"/>
<path d="M96.3806 29.3777C95.1589 28.6144 94.12 27.7175 93.0739 26.8097C94.28 27.4659 95.5173 28.1208 96.7642 28.5615L96.3806 29.3777Z" fill="#553B2C"/>
<path d="M96.2519 28.3459L93.8578 25.9561L96.7966 27.626L96.2519 28.3459Z" fill="#553B2C"/>
<path d="M96.8567 27.5465L94.4494 25.0603L97.4183 26.8386L96.8567 27.5465Z" fill="#553B2C"/>
<path d="M93.805 31.6219C92.5617 30.8525 91.5191 29.8858 90.5692 28.86C91.7127 29.6606 92.9272 30.365 94.1934 30.8068L93.805 31.6219Z" fill="#553B2C"/>
<path d="M93.562 32.4731C93.2819 32.3033 92.8297 32.077 92.4882 31.8482C92.1239 31.6146 91.7764 31.3654 91.4421 31.1006C90.7748 30.5708 90.1579 29.9929 89.5783 29.3873C90.2565 29.8797 90.9612 30.3324 91.6886 30.7225C92.053 30.9176 92.4245 31.0921 92.8009 31.2474C93.1941 31.416 93.5199 31.5003 93.9961 31.6821L93.562 32.4731Z" fill="#553B2C"/>
<path d="M92.4186 32.8945C92.1372 32.7175 91.7127 32.4947 91.3748 32.2696C91.0225 32.0384 90.6822 31.794 90.3576 31.534C89.707 31.0163 89.107 30.4492 88.5407 29.8581C89.2056 30.3361 89.8922 30.7779 90.6053 31.1572C90.9612 31.3462 91.3231 31.5183 91.6911 31.6712C92.0723 31.8326 92.4005 31.9265 92.8538 32.1035L92.4186 32.8945Z" fill="#553B2C"/>
<path d="M91.4651 33.5446C91.1813 33.3616 90.7821 33.1437 90.4514 32.921C90.1087 32.6934 89.7792 32.4514 89.463 32.1974C88.8293 31.6893 88.2437 31.1367 87.6918 30.5576C88.3423 31.0223 89.0145 31.4521 89.7107 31.8206C90.0582 32.0048 90.4117 32.1745 90.7713 32.3238C91.1392 32.4815 91.4711 32.5815 91.9004 32.7536L91.4651 33.5446Z" fill="#553B2C"/>
<path d="M90.3239 33.9684L89.3403 33.3447C89.0084 33.122 88.6885 32.8836 88.3807 32.6356C87.7627 32.1372 87.1939 31.5942 86.6564 31.0295C87.2925 31.4822 87.949 31.9 88.6284 32.2576C88.9675 32.437 89.3126 32.6019 89.6637 32.75L90.7592 33.1786L90.3239 33.9684Z" fill="#553B2C"/>
<path d="M89.0709 34.2574L88.1174 33.6361C87.7963 33.4146 87.4861 33.181 87.1867 32.9378C86.5855 32.4502 86.0324 31.9193 85.5081 31.3679C86.131 31.8049 86.7707 32.213 87.4356 32.561C87.7663 32.7356 88.103 32.8957 88.4445 33.0414L89.5062 33.4664L89.0709 34.2574Z" fill="#553B2C"/>
<path d="M87.7747 34.4933C87.1795 34.1033 86.517 33.665 85.9482 33.187C85.3662 32.7091 84.8275 32.1902 84.3177 31.652C84.9261 32.077 85.5514 32.4707 86.1983 32.8114C86.85 33.1618 87.4933 33.4182 88.21 33.7023L87.7747 34.4933Z" fill="#553B2C"/>
<path d="M86.5964 34.8714C86.012 34.4813 85.3819 34.0491 84.8276 33.5807C84.2636 33.1112 83.7406 32.6055 83.244 32.0806C83.838 32.4911 84.4488 32.8728 85.0789 33.2051C85.7126 33.5446 86.3439 33.8047 87.0317 34.0816L86.5964 34.8714Z" fill="#553B2C"/>
<path d="M85.3698 35.1904C84.7975 34.7991 84.1962 34.3753 83.6575 33.9142C83.1128 33.4543 82.6042 32.9619 82.1232 32.449C82.7016 32.8475 83.298 33.2159 83.9101 33.5398C84.5257 33.8709 85.1462 34.1333 85.8051 34.4006L85.3698 35.1904Z" fill="#553B2C"/>
<path d="M84.266 35.66C83.1213 34.8846 82.0499 33.9684 81.124 32.9679C82.2555 33.7457 83.4435 34.373 84.7013 34.869L84.266 35.66Z" fill="#553B2C"/>
<path d="M82.888 35.796C81.7757 35.0243 80.7524 34.1261 79.8506 33.1521C80.9533 33.901 82.11 34.521 83.3233 35.005L82.888 35.796Z" fill="#553B2C"/>
<path d="M81.3344 35.7214C80.2522 34.9557 79.2806 34.0719 78.4029 33.1268C79.4766 33.8432 80.6009 34.462 81.7697 34.9304L81.3344 35.7214Z" fill="#553B2C"/>
<path d="M79.7857 35.6516C78.7335 34.8955 77.8149 34.0238 76.9599 33.1064C78.0061 33.7926 79.0955 34.4103 80.221 34.8617L79.7857 35.6516Z" fill="#553B2C"/>
<path d="M22.3654 27.5785C17.409 19.1629 19.1429 8.94371 26.2409 4.75274C33.3365 0.562969 43.1076 3.98822 48.0652 12.4039C53.0217 20.8183 51.2866 31.0375 44.191 35.2285C37.0941 39.4183 27.3219 35.9942 22.3654 27.5785Z" fill="white"/>
<path d="M22.3654 27.579L22.8837 27.2732C21.0283 24.1237 20.1409 20.7189 20.1409 17.5007C20.1445 12.3562 22.3943 7.72336 26.5451 5.27211C28.5039 4.11631 30.6731 3.56732 32.8964 3.56732C38.3471 3.5625 44.126 6.89625 47.547 12.7102C49.4023 15.8597 50.2897 19.2633 50.2897 22.4815C50.2861 27.626 48.0364 32.2588 43.8855 34.71C41.9267 35.8658 39.7575 36.4148 37.5342 36.4148C32.0836 36.4197 26.3046 33.0859 22.8837 27.2732L22.3654 27.579L21.8484 27.8848C25.4689 34.0286 31.593 37.614 37.5342 37.6188C39.9547 37.62 42.344 37.018 44.4964 35.7479C49.0717 33.045 51.4946 27.9667 51.4922 22.4815C51.491 19.043 50.5459 15.4299 48.5835 12.0985C44.9605 5.95356 38.8365 2.36818 32.8964 2.36336C30.4759 2.36336 28.0866 2.96413 25.9355 4.2355C21.359 6.93718 18.936 12.0155 18.9384 17.5007C18.9397 20.9404 19.8848 24.5523 21.8484 27.8848L22.3654 27.579Z" fill="#553B2C"/>
<path d="M42.6158 36.0139C39.5099 35.2398 36.6878 33.1353 34.8252 30.2927C32.9157 27.4538 32.1846 23.8564 32.4215 20.4937C32.6235 17.6271 32.3927 14.8038 31.557 12.0516C30.7201 9.30416 29.3216 6.64462 27.3171 4.19095C30.2776 5.45511 32.6536 8.00389 34.1795 10.9704C35.7006 13.9623 36.2717 17.4537 36.018 20.7622C35.8389 23.5626 36.1587 26.3438 37.301 28.9262C38.3928 31.5364 40.2446 33.9178 42.6158 36.0139Z" fill="#553B2C"/>
<path d="M43.8435 35.2049C43.8435 35.2049 53.3909 25.8742 44.9281 12.9762C36.4641 0.0782547 26.241 4.75323 26.241 4.75323C26.241 4.75323 37.7291 -1.91549 47.4028 11.3485C47.4028 11.3485 57.1317 27.2877 43.8435 35.2049Z" fill="#553B2C"/>
<path d="M23.9082 9.09467C23.1976 10.3612 22.6781 11.7109 22.3102 13.093C21.9603 14.4776 21.7077 15.8898 21.6837 17.3165C21.6572 18.7384 21.7198 20.1723 22.0023 21.5773C22.2308 22.9968 22.6781 24.3657 23.1206 25.7538C22.7996 25.1049 22.4737 24.4487 22.1995 23.7709C21.9771 23.0762 21.6921 22.396 21.5502 21.6736C21.1522 20.2542 21.068 18.7661 21.0825 17.2948C21.1246 15.82 21.4023 14.3524 21.8701 12.9594C22.339 11.5688 22.9871 10.2264 23.9082 9.09467Z" fill="#553B2C"/>
<path d="M37.848 16.1125C38.2028 16.924 38.3975 17.8077 38.4853 18.695C38.5683 19.5847 38.5839 20.4853 38.4841 21.375C38.2845 23.0906 38.3855 24.8496 38.8268 26.487L38.834 26.5135C39.1142 27.5874 39.5242 28.6782 40.0052 29.7148C40.4958 30.7514 41.0345 31.7712 41.6369 32.762C40.9107 31.8603 40.2517 30.8947 39.6926 29.8725C39.1467 28.8408 38.6356 27.7957 38.311 26.6363L38.3182 26.6616C38.0212 25.7827 37.8901 24.899 37.8168 23.9984C37.7675 23.1015 37.7999 22.1853 37.9466 21.3088C38.0645 20.4516 38.1498 19.5871 38.1342 18.7155C38.1114 17.8474 38.0561 16.9721 37.848 16.1125Z" fill="#553B2C"/>
<path d="M45.4644 12.9786L42.3946 13.9635L45.1193 12.1455L45.4644 12.9786Z" fill="#553B2C"/>
<path d="M45.5895 12.048C44.3016 12.2683 43.0006 12.6403 41.7296 13.0749C42.8779 12.367 44.0599 11.7121 45.3441 11.1787L45.5895 12.048Z" fill="#553B2C"/>
<path d="M44.6383 11.4593C43.4708 11.5375 42.2852 11.8 41.1236 12.1527C42.1649 11.5255 43.2639 10.9668 44.464 10.5732L44.6383 11.4593Z" fill="#553B2C"/>
<path d="M43.9458 10.6827C42.7241 10.7501 41.4832 11.0222 40.2699 11.3978C41.3617 10.7489 42.5209 10.1758 43.7858 9.79418L43.9458 10.6827Z" fill="#553B2C"/>
<path d="M43.0139 9.83509C41.9004 9.91335 40.7725 10.1517 39.6638 10.4792C40.6511 9.87722 41.6972 9.34147 42.8311 8.95139L43.0139 9.83509Z" fill="#553B2C"/>
<path d="M43.3662 8.87676L42.1926 8.96344C41.815 9.00197 41.4375 9.05855 41.0599 9.12959C40.3048 9.27165 39.5544 9.47874 38.8125 9.72194C39.4931 9.34149 40.1965 8.98993 40.9324 8.69617C41.3004 8.54928 41.6755 8.41564 42.0591 8.30006L43.1822 7.99306L43.3662 8.87676Z" fill="#553B2C"/>
<path d="M42.2526 8.23265L41.1139 8.32534C40.7436 8.36387 40.3756 8.41927 40.0077 8.48909C39.2706 8.62635 38.5395 8.82741 37.8156 9.06097C38.4794 8.69016 39.1624 8.34461 39.8802 8.05566C40.2373 7.90998 40.6029 7.77876 40.9744 7.66198L42.0687 7.34894L42.2526 8.23265Z" fill="#553B2C"/>
<path d="M41.0826 7.62585C40.3142 7.68605 39.6252 7.74264 38.8978 7.88471C38.1799 8.01955 37.4669 8.21218 36.761 8.43852C37.4067 8.07493 38.0729 7.73781 38.7691 7.45247C39.4545 7.16232 40.2156 6.9396 40.8998 6.74215L41.0826 7.62585Z" fill="#553B2C"/>
<path d="M40.0678 6.9167C39.3295 6.9793 38.6501 7.04071 37.9443 7.17917C37.2444 7.3116 36.5494 7.4958 35.8604 7.71371C36.4881 7.35734 37.1374 7.02986 37.8132 6.74693C38.4818 6.46039 39.2116 6.23526 39.885 6.033L40.0678 6.9167Z" fill="#553B2C"/>
<path d="M38.9892 6.25091C38.281 6.31231 37.6112 6.37974 36.9258 6.51458C36.2452 6.64461 35.5682 6.82158 34.8973 7.03107C35.5069 6.68312 36.1382 6.36168 36.7947 6.08236C37.4441 5.79943 38.1427 5.57188 38.8064 5.366L38.9892 6.25091Z" fill="#553B2C"/>
<path d="M38.0717 5.47679C36.7238 5.58154 35.4047 5.83075 34.0941 6.24251C35.2724 5.55746 36.5663 4.99761 37.8878 4.59428L38.0717 5.47679Z" fill="#553B2C"/>
<path d="M36.7948 4.93985C35.4938 5.04821 34.206 5.29864 32.9314 5.69113C34.0797 5.02534 35.3206 4.4679 36.6108 4.05735L36.7948 4.93985Z" fill="#553B2C"/>
<path d="M35.2881 4.55577C34.0339 4.65931 32.7774 4.91936 31.54 5.28897C32.6571 4.64365 33.8451 4.08502 35.1041 3.67207L35.2881 4.55577Z" fill="#553B2C"/>
<path d="M33.7874 4.16569C32.5802 4.26561 31.3573 4.5353 30.1548 4.88324C31.2419 4.25839 32.3757 3.69494 33.6034 3.28199L33.7874 4.16569Z" fill="#553B2C"/>
<path d="M48.6593 16.9469C48.0124 17.4032 47.3631 17.6873 46.7125 17.9991L44.7646 18.8985L46.4805 17.6127C47.0396 17.1829 47.6276 16.7458 48.0593 16.2727L48.6593 16.9469Z" fill="#553B2C"/>
<path d="M48.1711 15.838L44.369 17.8246L47.6216 15.1229L48.1711 15.838Z" fill="#553B2C"/>
<path d="M47.6396 14.8063C46.4576 15.631 45.2251 16.2341 43.9805 16.8385C45.0567 15.9861 46.1461 15.1072 47.0407 14.1308L47.6396 14.8063Z" fill="#553B2C"/>
<path d="M46.6415 14.5185L43.5056 15.7827L46.1954 13.7335L46.6415 14.5185Z" fill="#553B2C"/>
<path d="M46.1449 13.6468L42.9164 14.8845L45.7168 12.8522L46.1449 13.6468Z" fill="#553B2C"/>
<path d="M48.6868 18.0606C47.4916 18.9009 46.1941 19.4824 44.8775 19.9508C46.0619 19.214 47.1862 18.3724 48.0916 17.3827L48.6868 18.0606Z" fill="#553B2C"/>
<path d="M49.3723 18.6192C49.1078 18.8094 48.7206 19.1369 48.3767 19.3608C48.0195 19.6028 47.6528 19.8267 47.2788 20.0302C46.5285 20.4347 45.7566 20.7755 44.9726 21.0716C45.6916 20.6406 46.3842 20.1699 47.0287 19.6534C47.3498 19.3945 47.6576 19.1224 47.9474 18.8371C48.2576 18.5409 48.4621 18.2748 48.818 17.9064L49.3723 18.6192Z" fill="#553B2C"/>
<path d="M49.3098 19.8376C49.0368 20.0266 48.6653 20.33 48.325 20.5503C47.9751 20.7863 47.6167 21.0018 47.25 21.1993C46.5177 21.5942 45.7614 21.924 44.9954 22.2118C45.6964 21.788 46.3722 21.3293 47.0011 20.8224C47.3149 20.5696 47.6155 20.3023 47.8993 20.0254C48.1987 19.7389 48.4128 19.4716 48.7555 19.1248L49.3098 19.8376Z" fill="#553B2C"/>
<path d="M49.5322 20.9705C49.252 21.1583 48.8949 21.4412 48.5594 21.6567C48.2167 21.8843 47.8644 22.0926 47.5061 22.284C46.7918 22.6669 46.0523 22.9871 45.3032 23.2676C45.9862 22.8523 46.6464 22.4032 47.2572 21.906C47.5638 21.6591 47.8584 21.4003 48.1362 21.1282C48.4272 20.8513 48.6496 20.5864 48.9767 20.259L49.5322 20.9705Z" fill="#553B2C"/>
<path d="M49.4721 22.1877L48.5125 22.8475C48.177 23.0654 47.832 23.2652 47.482 23.4519C46.7834 23.8239 46.0608 24.1345 45.3309 24.4078C45.9958 23.9997 46.6379 23.559 47.2343 23.075C47.5325 22.833 47.8199 22.5802 48.0929 22.3153L48.9165 21.4762L49.4721 22.1877Z" fill="#553B2C"/>
<path d="M49.2436 23.4543L48.2973 24.0875C47.9679 24.297 47.6312 24.4909 47.2897 24.6703C46.6067 25.0314 45.9008 25.33 45.189 25.5973C45.8359 25.1952 46.4612 24.7666 47.042 24.2934C47.333 24.0574 47.6131 23.8094 47.8813 23.5542L48.6881 22.7427L49.2436 23.4543Z" fill="#553B2C"/>
<path d="M48.9502 24.7401C48.3574 25.135 47.6961 25.572 47.0323 25.9091C46.365 26.2559 45.676 26.5472 44.9821 26.8061C45.611 26.4124 46.2183 25.9922 46.7858 25.5299C47.3642 25.0664 47.8524 24.5764 48.3947 24.0286L48.9502 24.7401Z" fill="#553B2C"/>
<path d="M48.8336 25.973C48.2456 26.3582 47.6023 26.7688 46.953 27.095C46.3001 27.4273 45.6291 27.7127 44.9521 27.9619C45.5642 27.5766 46.1534 27.1649 46.7077 26.7158C47.2681 26.2655 47.755 25.7863 48.2793 25.2626L48.8336 25.973Z" fill="#553B2C"/>
<path d="M48.646 27.2287C48.0604 27.6019 47.4339 27.9884 46.799 28.3026C46.1617 28.6216 45.51 28.8973 44.8499 29.1393C45.4439 28.7625 46.0162 28.3592 46.5561 27.9234C47.1008 27.4863 47.5842 27.0192 48.0905 26.5183L48.646 27.2287Z" fill="#553B2C"/>
<path d="M48.6412 28.429C47.4784 29.1779 46.2159 29.8039 44.9329 30.2626C46.0932 29.5258 47.1357 28.6806 48.0869 27.7187L48.6412 28.429Z" fill="#553B2C"/>
<path d="M48.224 29.7521C47.0781 30.4721 45.8504 31.0608 44.6022 31.5075C45.7229 30.7863 46.7474 29.9652 47.6697 29.0394L48.224 29.7521Z" fill="#553B2C"/>
<path d="M47.5446 31.1524C46.4155 31.847 45.2214 32.3924 44.0082 32.8307C45.0892 32.1227 46.0992 31.3317 46.989 30.4396L47.5446 31.1524Z" fill="#553B2C"/>
<path d="M46.8712 32.5502C45.7626 33.222 44.5998 33.724 43.4214 34.1502C44.4639 33.4568 45.4596 32.6959 46.3169 31.8374L46.8712 32.5502Z" fill="#553B2C"/>
<path d="M54.6318 4.48663C64.6313 -1.90638 77.1067 -0.234081 82.4972 8.2189C87.8866 16.6731 84.1494 28.7078 74.1499 35.0984C64.1504 41.4902 51.675 39.8191 46.2844 31.3661C40.8951 22.912 44.6323 10.8772 54.6318 4.48663Z" fill="white"/>
<path d="M54.6317 4.48713L54.9552 4.99399C58.9569 2.43559 63.3591 1.20394 67.5111 1.20394C73.4981 1.20755 78.9355 3.75271 81.9897 8.54325C83.5974 11.0667 84.3609 13.9165 84.3621 16.8506C84.3657 23.3664 80.5648 30.2879 73.8263 34.592C69.8246 37.1505 65.4224 38.3809 61.2704 38.3809C55.2822 38.3785 49.846 35.8333 46.7918 31.0428C45.1841 28.5193 44.4194 25.6695 44.4194 22.7355C44.4158 16.2197 48.2167 9.29814 54.9552 4.99399L54.6317 4.48713L54.3083 3.97905C47.2548 8.49028 43.2206 15.7513 43.217 22.7355C43.2157 25.8778 44.0394 28.9648 45.7781 31.6905C49.0861 36.8796 54.9516 39.5885 61.2704 39.5849C65.6593 39.5849 70.2815 38.2858 74.4732 35.607C81.5268 31.0958 85.561 23.8347 85.5646 16.8506C85.5646 13.7082 84.7409 10.6213 83.0034 7.89552C79.6942 2.70647 73.8287 -0.00242233 67.5111 -1.52588e-05C63.1222 -1.52588e-05 58.5 1.30025 54.3083 3.97905L54.6317 4.48713Z" fill="#553B2C"/>
<path d="M45.266 29.4837C45.997 25.6359 48.3995 22.0444 51.788 19.6173C55.1645 17.1275 59.545 16.0572 63.6694 16.2041C67.1312 16.3245 70.5076 15.9428 73.7999 14.8484C77.0814 13.7456 80.2655 12.0023 83.2259 9.50645C82.6042 11.3798 81.4439 13.0328 80.1176 14.5318C78.7624 16.0078 77.1596 17.3093 75.3619 18.2977C71.7846 20.3168 67.534 21.1836 63.4806 21.0139C60.1077 20.92 56.7938 21.4015 53.7215 22.8571C50.6216 24.2597 47.7815 26.5448 45.266 29.4837Z" fill="#553B2C"/>
<path d="M46.2977 30.9424C46.2977 30.9424 58.0311 42.156 73.3202 31.3071C88.6092 20.4571 82.4972 8.21889 82.4972 8.21889C82.4972 8.21889 91.0826 21.9091 75.4028 34.2472C75.4028 34.2472 56.4775 46.7684 46.2977 30.9424Z" fill="#553B2C"/>
<path d="M77.1295 5.56949C75.576 4.73635 73.9154 4.14641 72.2211 3.74911C70.5257 3.36505 68.7954 3.10257 67.0566 3.15073C65.3239 3.16397 63.5804 3.31567 61.8861 3.73826C60.1751 4.08861 58.5325 4.70384 56.8792 5.32508C57.6596 4.92055 58.4435 4.50157 59.2564 4.14881C60.0909 3.85625 60.9062 3.48664 61.7755 3.28919C63.4806 2.76426 65.277 2.60895 67.0566 2.54875C68.8423 2.55116 70.6279 2.81242 72.339 3.30363C74.0452 3.80328 75.7022 4.52084 77.1295 5.56949Z" fill="#553B2C"/>
<path d="M69.2113 22.8294C68.2362 23.2797 67.172 23.5397 66.1006 23.6782C65.028 23.8082 63.9374 23.86 62.8576 23.7637C61.7983 23.6674 60.7534 23.6782 59.7072 23.7926C58.6695 23.8913 57.6126 24.0803 56.6398 24.4066L56.623 24.4114L56.6158 24.4138C55.3171 24.8159 54.0149 25.3649 52.7788 26.0042C51.5426 26.6532 50.3354 27.3647 49.169 28.1533C50.2416 27.2431 51.3912 26.4136 52.6104 25.6984C53.8405 24.9977 55.0899 24.3355 56.4763 23.9057L56.4522 23.913C58.53 23.1713 60.7486 22.9775 62.9033 23.2375C63.9531 23.3314 65.01 23.3916 66.0682 23.3266C67.1227 23.2544 68.1821 23.1352 69.2113 22.8294Z" fill="#553B2C"/>
<path d="M73.4283 31.9205L72.0143 28.2689L74.2484 31.5449L73.4283 31.9205Z" fill="#553B2C"/>
<path d="M74.5683 32.0421C74.2124 30.4878 73.6749 28.9335 73.0629 27.4213C73.9443 28.8023 74.7595 30.2265 75.4281 31.7664L74.5683 32.0421Z" fill="#553B2C"/>
<path d="M75.2441 30.8682C75.0649 29.4488 74.6633 28.0281 74.157 26.6448C74.9338 27.8981 75.6276 29.2224 76.1218 30.6624L75.2441 30.8682Z" fill="#553B2C"/>
<path d="M76.1568 29.993C75.9884 28.5073 75.5724 27.0192 75.0361 25.5732C75.8417 26.888 76.5536 28.2833 77.0382 29.8027L76.1568 29.993Z" fill="#553B2C"/>
<path d="M77.1452 28.8215C76.9696 27.4695 76.5993 26.1174 76.1243 24.7979C76.8686 25.9862 77.5324 27.2456 78.0206 28.6072L77.1452 28.8215Z" fill="#553B2C"/>
<path d="M78.3223 29.208C78.2501 28.6891 78.2201 28.2581 78.1431 27.7909C78.0734 27.3322 77.9808 26.8747 77.869 26.4208C77.6477 25.5106 77.3495 24.6125 77.0068 23.7288C77.4842 24.5487 77.9255 25.3939 78.297 26.2788C78.4834 26.7206 78.653 27.1721 78.8009 27.6332C78.9524 28.0847 79.0726 28.588 79.1977 28.9925L78.3223 29.208Z" fill="#553B2C"/>
<path d="M79.057 27.8259L78.8718 26.4497C78.8009 26.0031 78.7095 25.5576 78.6013 25.1133C78.3872 24.226 78.0962 23.3507 77.7656 22.4875C78.2309 23.2857 78.665 24.1092 79.0293 24.9701C79.2121 25.4011 79.3792 25.8405 79.5283 26.2884L79.9324 27.6127L79.057 27.8259Z" fill="#553B2C"/>
<path d="M79.7436 26.3775C79.6221 25.4553 79.5067 24.6113 79.2866 23.7384C79.0762 22.8728 78.796 22.0192 78.4762 21.1776C78.9307 21.953 79.354 22.756 79.7135 23.594C80.079 24.4199 80.3652 25.3301 80.6189 26.1632L79.7436 26.3775Z" fill="#553B2C"/>
<path d="M80.56 25.1133C80.4385 24.2236 80.3159 23.3953 80.1019 22.5477C79.895 21.7037 79.6257 20.8718 79.3179 20.0507C79.7616 20.8068 80.1728 21.5882 80.5287 22.402C80.8883 23.2063 81.1756 24.0791 81.4354 24.8978L80.56 25.1133Z" fill="#553B2C"/>
<path d="M81.3224 23.7709C81.2009 22.9173 81.0723 22.1034 80.8655 21.2799C80.661 20.46 80.4025 19.6497 80.1043 18.8491C80.5384 19.5847 80.9388 20.3444 81.2911 21.133C81.6446 21.9156 81.9356 22.7535 82.199 23.5554L81.3224 23.7709Z" fill="#553B2C"/>
<path d="M82.2218 22.6223C82.0042 20.991 81.6122 19.4005 81.0278 17.839C81.8791 19.2585 82.5813 20.8116 83.0972 22.4068L82.2218 22.6223Z" fill="#553B2C"/>
<path d="M82.817 21.0451C82.5994 19.4692 82.205 17.9197 81.6471 16.4015C82.4743 17.7836 83.1718 19.2765 83.6924 20.8296L82.817 21.0451Z" fill="#553B2C"/>
<path d="M83.2199 19.1947C83.0058 17.6753 82.6054 16.1667 82.0751 14.6907C82.876 16.0355 83.5734 17.4658 84.0952 18.9804L83.2199 19.1947Z" fill="#553B2C"/>
<path d="M83.6274 17.3539C83.4218 15.8874 83.0106 14.4222 82.5068 12.9883C83.2824 14.297 83.9846 15.6635 84.504 17.1383L83.6274 17.3539Z" fill="#553B2C"/>
<path d="M68.7329 35.9501C68.1497 35.2061 67.7625 34.4355 67.3429 33.6686L66.1272 31.363L67.7204 33.4218C68.2543 34.0936 68.7918 34.7979 69.3846 35.3265L68.7329 35.9501Z" fill="#553B2C"/>
<path d="M70.0616 35.3132C69.0695 33.8685 68.2134 32.3648 67.4126 30.8357C68.4647 32.201 69.5673 33.5278 70.7566 34.739L70.0616 35.3132Z" fill="#553B2C"/>
<path d="M71.2868 34.6186C70.2214 33.2473 69.4062 31.7893 68.5921 30.3216C69.6478 31.6135 70.7325 32.9174 71.9385 33.9937L71.2868 34.6186Z" fill="#553B2C"/>
<path d="M71.6055 33.4074L69.8547 29.6968L72.3727 32.9342L71.6055 33.4074Z" fill="#553B2C"/>
<path d="M72.6432 32.7681L70.9189 28.9431L73.4212 32.3118L72.6432 32.7681Z" fill="#553B2C"/>
<path d="M67.3837 36.032C66.2955 34.6462 65.5091 33.1112 64.8538 31.5461C65.7713 32.9716 66.8138 34.3224 68.0403 35.412L67.3837 36.032Z" fill="#553B2C"/>
<path d="M66.7392 36.8952C66.4759 36.5714 66.0707 36.1343 65.7761 35.7286C65.4611 35.312 65.1701 34.8822 64.9019 34.4416C64.3656 33.5591 63.9063 32.6428 63.4987 31.7086C64.0386 32.573 64.6254 33.405 65.2675 34.1791C65.5897 34.5644 65.93 34.934 66.2835 35.2819C66.6479 35.6491 66.987 35.9068 67.4294 36.3137L66.7392 36.8952Z" fill="#553B2C"/>
<path d="M65.2578 36.8699C64.9993 36.5401 64.6193 36.1175 64.3295 35.7178C64.0253 35.3096 63.7427 34.8894 63.483 34.4572C62.96 33.5952 62.5127 32.6982 62.1158 31.7856C62.6461 32.6296 63.2185 33.4411 63.8486 34.1948C64.1624 34.5728 64.4943 34.9328 64.8394 35.2735C65.1929 35.6299 65.5308 35.8971 65.9492 36.2908L65.2578 36.8699Z" fill="#553B2C"/>
<path d="M63.8918 37.189C63.6357 36.8519 63.2797 36.4449 62.9972 36.0512C62.7026 35.6503 62.4308 35.2386 62.1771 34.816C61.6685 33.9744 61.2344 33.0967 60.8472 32.207C61.3679 33.0281 61.927 33.8191 62.5438 34.5535C62.8517 34.9219 63.1727 35.2759 63.5106 35.6094C63.8521 35.9549 64.1864 36.2294 64.5832 36.6087L63.8918 37.189Z" fill="#553B2C"/>
<path d="M62.4128 37.1685C62.1591 36.8278 61.826 36.4329 61.5519 36.0452C61.2681 35.6528 61.0048 35.2482 60.7583 34.8377C60.2641 34.0142 59.8432 33.1569 59.4656 32.2877C59.9767 33.0871 60.5226 33.8589 61.125 34.5752C61.4256 34.934 61.7394 35.2783 62.0677 35.6058C62.3984 35.9441 62.7279 36.2234 63.103 36.5882L62.4128 37.1685Z" fill="#553B2C"/>
<path d="M60.8652 36.9458L60.0379 35.837C59.765 35.4517 59.5089 35.0568 59.2708 34.6547C58.7922 33.8505 58.3846 33.0149 58.0166 32.1673C58.5168 32.9439 59.0507 33.6963 59.6387 34.3934C59.9321 34.7426 60.2375 35.0809 60.5562 35.4024L61.5554 36.3655L60.8652 36.9458Z" fill="#553B2C"/>
<path d="M59.2924 36.6436C58.7718 35.9453 58.2066 35.1784 57.7569 34.3946C57.2952 33.6084 56.8984 32.7934 56.5413 31.9674C57.0307 32.7235 57.5537 33.4531 58.1261 34.1346C58.6997 34.828 59.3105 35.4204 59.9827 36.0633L59.2924 36.6436Z" fill="#553B2C"/>
<path d="M57.7906 36.5557C57.2843 35.8635 56.7504 35.1146 56.3152 34.3477C55.8703 33.5807 55.4831 32.7873 55.1368 31.9807C55.6166 32.7163 56.1276 33.4254 56.6843 34.0888C57.2411 34.763 57.8375 35.3518 58.4808 35.9754L57.7906 36.5557Z" fill="#553B2C"/>
<path d="M56.2587 36.3799C55.7681 35.6937 55.2643 34.9641 54.8422 34.2152C54.4142 33.4639 54.039 32.691 53.7035 31.9072C54.1725 32.6212 54.6727 33.3086 55.2126 33.9576C55.7525 34.6113 56.3333 35.1964 56.9501 35.7984L56.2587 36.3799Z" fill="#553B2C"/>
<path d="M54.8025 36.4269C53.8213 35.0676 52.9844 33.5831 52.3447 32.0553C53.2573 33.4495 54.3059 34.7064 55.4927 35.8466L54.8025 36.4269Z" fill="#553B2C"/>
<path d="M53.1792 35.9754C52.2353 34.6366 51.4441 33.1918 50.8188 31.7062C51.7134 33.0546 52.7295 34.2887 53.8694 35.3963L53.1792 35.9754Z" fill="#553B2C"/>
<path d="M51.4513 35.2085C50.5387 33.8926 49.7992 32.4839 49.1883 31.0404C50.0637 32.3407 51.0425 33.5567 52.1427 34.6282L51.4513 35.2085Z" fill="#553B2C"/>
<path d="M49.7258 34.45C48.8444 33.1582 48.1566 31.7844 47.5614 30.3842C48.4187 31.6376 49.3578 32.8367 50.416 33.8697L49.7258 34.45Z" fill="#553B2C"/>
<path d="M10.1639 24.7654C10.0087 28.0919 7.60986 30.6816 4.80456 30.5504C2.00047 30.418 -0.148302 27.6163 0.00801593 24.291C0.163131 20.9645 2.56201 18.3736 5.36731 18.506C8.17141 18.636 10.3202 21.4388 10.1639 24.7654Z" fill="#B88C43"/>
<path d="M5.96248 18.5758C5.96248 18.5758 6.10678 18.7215 6.29797 19.0237C6.39296 19.1754 6.50238 19.3644 6.60458 19.5944C6.65268 19.7112 6.70198 19.8352 6.75609 19.9676C6.80058 20.1024 6.84147 20.2457 6.88476 20.3974C6.91603 20.5515 6.9545 20.7116 6.98336 20.8814C7.00259 21.0499 7.02785 21.2269 7.03266 21.4099C7.04468 21.7759 7.02184 22.1672 6.94127 22.5645C6.86311 22.9618 6.73085 23.3628 6.55289 23.7468C6.45308 23.9334 6.36771 24.1333 6.25228 24.3115L5.89154 24.8424L5.56087 25.3071C5.44423 25.4709 5.3757 25.613 5.2783 25.7646C5.10395 26.068 4.9404 26.3955 4.81655 26.7146C4.7432 26.8723 4.70233 27.0372 4.64702 27.1962C4.5869 27.3539 4.55682 27.5128 4.51474 27.6681C4.43898 27.9799 4.38728 28.2821 4.35482 28.5651C4.32716 28.8492 4.31273 29.1116 4.30912 29.3488C4.31153 29.5848 4.31755 29.7931 4.32957 29.964C4.34641 30.1362 4.35722 30.2735 4.37045 30.3662L4.3933 30.5094C4.3933 30.5094 4.27306 30.3433 4.13357 30.0134C4.06503 29.8485 3.98687 29.6438 3.92315 29.4018C3.85942 29.1586 3.79929 28.8781 3.77043 28.5663C3.74037 28.2568 3.72595 27.9125 3.75841 27.5513C3.78727 27.1913 3.84979 26.8097 3.96282 26.428C4.01934 26.2378 4.07224 26.0404 4.15762 25.8537C4.23818 25.6647 4.30432 25.4709 4.41735 25.2831C4.52076 25.1001 4.62177 24.8858 4.736 24.7292L5.08471 24.2224L5.39854 23.7757C5.49715 23.624 5.57771 23.4639 5.66909 23.311C5.83263 22.9943 5.9685 22.6729 6.0683 22.3478C6.1681 22.0252 6.23184 21.7001 6.27152 21.3859C6.29437 21.2293 6.29075 21.0752 6.30758 20.9235C6.3136 20.773 6.30759 20.6262 6.30999 20.4841C6.29917 20.342 6.28955 20.206 6.27993 20.076C6.2631 19.9459 6.24866 19.8231 6.23303 19.7063C6.19215 19.4752 6.15487 19.2693 6.11279 19.1031C6.0695 18.9358 6.03583 18.8022 6.00697 18.7143L5.96248 18.5758Z" fill="#FFFDFC"/>
</g>
<defs>
<clipPath id="clip0">
<rect width="122" height="56" fill="white"/>
</clipPath>
</defs>
</svg>
