<svg width="315" height="191" viewBox="0 0 315 191" fill="none" xmlns="http://www.w3.org/2000/svg">
<path d="M115.498 185.592C35.2592 180.89 -29.0895 95.4067 13.6077 45.7969C46.7218 7.32001 90.8745 63.3256 132.055 35.1075C195.41 -8.30107 298.052 -16.1929 311.639 38.5271C325.223 93.2504 280.221 178.753 246.683 183.883C213.143 189.012 115.498 185.592 115.498 185.592Z" fill="#D4F1FE"/>
<path d="M125.899 69.7373C126.748 90.2576 126.536 101.373 119.106 109.921C111.677 118.473 90.8745 116.336 90.8745 116.336C90.8745 116.336 88.8224 146.547 59.7415 147.83C30.6602 149.111 26.4856 110.207 49.2693 100.234C70.9579 90.7354 77.855 87.9763 85.3552 64.4652C92.2072 42.9837 113.588 47.0798 118.682 56.0552C123.777 65.0334 125.899 69.7373 125.899 69.7373Z" fill="#303C60"/>
<path d="M116.347 174.478C116.347 174.478 130.074 177.185 130.781 177.043C131.489 176.9 146.49 170.202 148.046 171.199C149.603 172.196 158.66 176.046 160.641 176.9C162.622 177.754 159.509 178.039 157.952 178.039C156.395 178.039 147.48 174.335 146.49 175.046C145.499 175.76 154.273 177.186 154.273 177.754C154.273 178.325 130.781 183.74 129.366 183.74C127.951 183.74 117.055 182.743 117.055 182.743L116.347 174.478Z" fill="#E38540"/>
<path d="M104.955 98.9853C112.349 100.446 116.701 108.327 118.116 115.228C119.531 122.131 104.955 98.9853 104.955 98.9853Z" fill="#1886EB"/>
<path d="M92.5726 93.6773C92.5726 93.6773 78.3506 103.296 70.7087 108C63.067 112.701 73.4684 163.362 76.0156 182.172C78.5628 200.982 122.715 183.883 122.715 183.883C122.715 183.883 119.743 168.063 123.564 142.627C126.301 124.408 116.276 112.987 110.545 105.079C96.0797 85.1181 92.5726 93.6773 92.5726 93.6773Z" fill="#1890FF"/>
<path d="M78.5628 108.212C94.9077 128.307 100.433 132.063 96.3936 145.62C93.2096 156.308 92.148 160.155 91.5113 163.79C90.8746 167.423 121.866 161.437 121.866 161.437L121.654 173.195C121.654 173.195 97.2428 184.951 85.3553 187.302C73.4683 189.655 66.0388 186.876 66.0388 186.876L78.5628 108.212Z" fill="#1886EB"/>
<path d="M283.237 188.691H89.8492C88.4532 188.691 87.3213 187.552 87.3213 186.146C87.3213 184.74 88.4532 183.6 89.8492 183.6H283.237C284.633 183.6 285.765 184.74 285.765 186.146C285.765 187.552 284.633 188.691 283.237 188.691Z" fill="#2E5B9A"/>
<path d="M97.8083 73.4421L90.4497 95.388C90.4497 95.388 98.5159 117.405 105.309 112.487C107.628 110.809 104.46 97.5244 104.46 97.5244L109.412 79.7112L97.8083 73.4421Z" fill="#F09959"/>
<path d="M74.3167 107.358C64.1551 108.495 63.2787 122.321 58.6088 145.406C53.9387 168.492 55.3422 183.729 57.5475 186.662C62.8541 193.716 122.502 169.134 129.932 169.348C135.06 169.494 130.781 160.797 130.781 160.797L73.8921 169.56C73.8921 169.56 81.9586 142.841 81.9586 129.161C81.9586 115.48 78.1377 106.929 74.3167 107.358Z" fill="#F09959"/>
<path d="M127.173 161.223C133.116 159.729 141.819 156.308 143.517 157.804C145.216 159.301 152.221 169.988 154.556 172.981C156.89 175.974 153.494 173.621 150.947 171.271C148.4 168.92 146.277 167.638 146.277 167.638C146.277 167.638 143.093 170.631 140.121 172.339C137.149 174.05 136.088 170.631 130.994 169.774C125.899 168.92 113.163 173.41 113.163 173.41L127.173 161.223Z" fill="#F09959"/>
<path d="M75.4496 105.647C69.223 105.933 64.4116 111.205 62.7135 119.328C61.0152 127.45 56.062 153.243 56.062 153.243C56.062 153.243 55.0716 153.957 65.402 155.811C75.7327 157.661 84.2235 155.525 84.2235 155.525C84.2235 155.525 86.3461 140.845 85.78 130.729C85.2142 120.61 82.9498 111.062 79.2706 107.786C75.5912 104.507 75.4496 105.647 75.4496 105.647Z" fill="#1890FF"/>
<path d="M104.46 97.5244L109.413 79.7112L97.8084 73.4421L96.0359 78.7281C95.6503 96.426 100.152 102.344 103.186 104.507C104.134 105.183 104.948 104.661 105.631 103.557C105.133 100.35 104.46 97.5244 104.46 97.5244Z" fill="#E38540"/>
<path d="M128.022 75.5099C128.022 85.0412 126.892 96.7308 118.682 96.4563C105.946 96.0306 97.9199 86.06 97.9199 76.5259C97.9199 66.9918 104.579 59.2619 112.794 59.2619C121.008 59.2619 128.022 65.9758 128.022 75.5099Z" fill="#F09959"/>
<path d="M223.07 183.592H175.325L194.964 140.085C195.537 138.816 196.794 138 198.179 138H241.509C242.513 138 243.178 139.044 242.763 139.964L223.07 183.592Z" fill="#9BD6E8"/>
<path d="M222.966 183.592H134.885C134.885 180.503 137.373 177.998 140.442 177.998H222.966V183.592Z" fill="#9BD6E8"/>
<path d="M241.509 138H203.324C201.939 138 200.682 138.816 200.109 140.085L180.47 183.592H223.07L242.764 139.964C243.178 139.044 242.513 138 241.509 138Z" fill="#7BCEE8"/>
<path d="M114.011 55.9515C123.033 55.3105 128.375 63.611 129.932 70.8799C131.055 76.1238 130.498 77.15 130.498 77.15C130.498 77.15 129.507 78.5751 122.432 79.0015C115.356 79.428 114.507 79.2877 114.507 79.2877L114.082 71.0229L111.959 79.0015C111.959 79.0015 110.827 80.5698 106.441 78.4321C102.054 76.2943 100.072 69.1686 100.072 69.1686C100.072 69.1686 99.0817 64.4667 102.478 61.3302C105.874 58.1965 114.011 55.9515 114.011 55.9515Z" fill="#303C60"/>
<path d="M107.3 77.3937C106.435 83.1602 101.864 87.2462 97.0908 86.5213C92.3175 85.7936 89.1497 80.5295 90.0149 74.763C90.8805 68.9964 95.4513 64.9104 100.225 65.6381C104.998 66.363 108.166 71.6271 107.3 77.3937Z" fill="#D54A41"/>
<path d="M103.852 77.2398C103.051 82.578 99.2979 86.4362 95.4701 85.854C91.642 85.2691 89.1883 80.4691 89.9895 75.1309C90.7909 69.79 94.5437 65.9346 98.3715 66.5168C102.2 67.0989 104.653 71.8989 103.852 77.2398Z" fill="#F39892"/>
<path d="M98.0022 76.0453C97.5618 78.9808 95.975 81.1721 94.4572 80.9414C92.9397 80.7107 92.0663 78.1433 92.5067 75.2106C92.9468 72.2778 94.5339 70.0865 96.0514 70.3172C97.5689 70.5479 98.4424 73.1126 98.0022 76.0453Z" fill="#F2E5DE"/>
<path d="M97.7737 65.7802C101.913 50.2839 116.202 52.543 119.815 54.7019C122.857 56.5186 123.282 59.0837 123.282 59.0837C123.282 59.0837 119.355 55.8759 112.668 57.0527C106.323 58.1684 102.55 61.9325 102.019 66.1029C101.748 68.2256 97.7737 65.7802 97.7737 65.7802Z" fill="#D54A41"/>
<path d="M34.2688 115.81H34.2374C34.0574 115.791 33.9257 115.631 33.9429 115.45C34.3146 111.532 36.2597 107.503 39.4199 104.107C42.993 100.268 48.0782 97.2416 54.1254 95.3578C67.6003 91.1619 79.3552 85.8265 86.7419 62.9387C86.7978 62.7657 86.9824 62.6696 87.1545 62.7273C87.3263 62.7822 87.4204 62.9689 87.3645 63.1419C83.9697 73.659 79.3487 81.3176 73.2379 86.5542C67.8481 91.1729 61.7766 93.6635 54.3188 95.9867C48.3801 97.8374 43.3931 100.8 39.8974 104.557C36.8356 107.847 34.9524 111.738 34.5944 115.513C34.578 115.684 34.4357 115.81 34.2688 115.81Z" fill="#303C60"/>
<path d="M40.3539 99.993C40.2563 99.993 40.1595 99.9491 40.0951 99.864C39.9842 99.7212 40.0103 99.5152 40.1532 99.4027C40.2105 99.3587 45.9681 94.9184 54.2931 93.0704C70.2759 89.5253 81.0064 79.8457 85.3242 65.0833C85.3755 64.9103 85.5568 64.8087 85.7305 64.8609C85.9039 64.9131 86.0032 65.097 85.9522 65.27C83.2847 74.3895 78.2664 81.5867 71.037 86.6613C66.3816 89.9317 60.7955 92.3043 54.4339 93.7157C46.2591 95.5281 40.61 99.8805 40.5541 99.9244C40.4946 99.9711 40.4237 99.993 40.3539 99.993Z" fill="#303C60"/>
<path d="M245.272 95.2617H202.162C201.758 95.2617 201.55 94.9322 201.697 94.5231L210.441 70.3309C210.588 69.9245 211.035 69.595 211.439 69.595H254.549C254.953 69.595 255.16 69.9245 255.013 70.3309L246.27 94.5231C246.123 94.9322 245.676 95.2617 245.272 95.2617Z" fill="#9EC8FF"/>
<path d="M244.752 94.1303H203.5C203.123 94.1303 202.928 93.8227 203.065 93.4411L211.028 71.4127C211.165 71.0338 211.582 70.7262 211.96 70.7262H253.211C253.587 70.7262 253.783 71.0338 253.644 71.4127L245.684 93.4411C245.545 93.8227 245.128 94.1303 244.752 94.1303Z" fill="white"/>
<path d="M244.007 92.697H205.281C204.857 92.697 204.638 92.351 204.792 91.9226L211.656 72.9341C211.81 72.5057 212.279 72.1597 212.703 72.1597H251.43C251.852 72.1597 252.073 72.5057 251.918 72.9341L245.054 91.9226C244.901 92.351 244.43 92.697 244.007 92.697Z" fill="#9EC8FF"/>
<path d="M235.431 82.427C234.008 86.362 229.688 89.5528 225.78 89.5528C221.873 89.5528 219.858 86.362 221.278 82.427C222.702 78.492 227.024 75.3011 230.932 75.3011C234.839 75.3011 236.854 78.492 235.431 82.427Z" fill="white"/>
<path d="M234.449 82.4269C233.222 85.8155 229.502 88.5642 226.137 88.5642C222.772 88.5642 221.038 85.8155 222.262 82.4269C223.487 79.0384 227.209 76.2924 230.574 76.2924C233.936 76.2924 235.673 79.0384 234.449 82.4269Z" fill="#9EC8FF"/>
<path d="M231.477 82.1002L228.783 83.3936L226.086 84.6897L227.024 82.1002L227.959 79.5108L229.718 80.8041L231.477 82.1002Z" fill="white"/>
<path d="M179.245 60.7776C178.471 60.7776 177.541 61.4724 177.254 62.2687L176.018 65.6875C175.901 66.0115 175.907 66.3026 176.035 66.4865C176.173 66.6843 176.428 66.7282 176.618 66.7282H180.014C180.801 66.7282 181.713 66.0444 182.005 65.2371L183.241 61.8156C183.358 61.4916 183.352 61.2005 183.224 61.0193C183.086 60.8188 182.831 60.7776 182.641 60.7776H179.245ZM180.014 68.0463H176.618C175.921 68.0463 175.317 67.7524 174.962 67.2417C174.586 66.7007 174.523 65.9703 174.788 65.2371L176.024 61.8156C176.502 60.4948 177.916 59.4596 179.245 59.4596H182.641C183.339 59.4596 183.942 59.7506 184.297 60.2614C184.673 60.8024 184.736 61.5328 184.471 62.2687L183.235 65.6875C182.757 67.0083 181.342 68.0463 180.014 68.0463Z" fill="#9CD499"/>
<path d="M173.991 75.3121C173.217 75.3121 172.287 76.0096 172 76.8031L170.764 80.2219C170.647 80.5459 170.653 80.837 170.781 81.021C170.919 81.2214 171.174 81.2626 171.364 81.2626H174.761C175.548 81.2626 176.459 80.5789 176.751 79.7715L177.988 76.3528C178.105 76.0288 178.098 75.7377 177.971 75.5537C177.832 75.3533 177.577 75.3121 177.387 75.3121H173.991ZM174.761 82.5807H171.364C170.667 82.5807 170.063 82.2869 169.709 81.7789C169.332 81.2379 169.269 80.5047 169.534 79.7715L170.77 76.3528C171.248 75.0292 172.663 73.994 173.991 73.994H177.387C178.085 73.994 178.688 74.2878 179.043 74.7958C179.419 75.3395 179.483 76.07 179.217 76.8031L177.981 80.2219C177.503 81.5455 176.089 82.5807 174.761 82.5807Z" fill="#9CD499"/>
<path d="M168.737 89.8494C167.95 89.8494 167.038 90.5304 166.746 91.3377L165.51 94.7592C165.393 95.0832 165.399 95.3743 165.527 95.5583C165.665 95.756 165.921 95.7972 166.11 95.7972H169.507C170.294 95.7972 171.206 95.1162 171.497 94.3061L172.734 90.8873C172.851 90.5633 172.844 90.2723 172.717 90.0883C172.579 89.8906 172.323 89.8494 172.134 89.8494H168.737ZM169.507 97.1152H166.11C165.413 97.1152 164.809 96.8242 164.455 96.3134C164.078 95.7725 164.015 95.042 164.28 94.3061L165.516 90.8873C165.994 89.5665 167.409 88.5286 168.737 88.5286H172.134C172.831 88.5286 173.434 88.8224 173.789 89.3331C174.165 89.8741 174.229 90.6045 173.964 91.3377L172.727 94.7592C172.25 96.08 170.835 97.1152 169.507 97.1152Z" fill="#9EC8FF"/>
<path d="M207.958 65.248H189.278C188.928 65.248 188.745 64.9597 188.873 64.6082C189 64.254 189.391 63.9657 189.741 63.9657H208.421C208.771 63.9657 208.954 64.254 208.826 64.6082C208.699 64.9597 208.308 65.248 207.958 65.248Z" fill="#9EC8FF"/>
<path d="M207.031 67.8128H188.351C188.001 67.8128 187.818 67.5245 187.946 67.173C188.073 66.8188 188.464 66.5304 188.814 66.5304H207.494C207.844 66.5304 208.027 66.8188 207.899 67.173C207.772 67.5245 207.381 67.8128 207.031 67.8128Z" fill="#9EC8FF"/>
<path d="M203.09 78.7144H184.41C184.06 78.7144 183.878 78.4261 184.005 78.0746C184.133 77.7204 184.524 77.432 184.874 77.432H203.554C203.904 77.432 204.086 77.7204 203.959 78.0746C203.831 78.4261 203.44 78.7144 203.09 78.7144Z" fill="#9EC8FF"/>
<path d="M202.163 81.2792H183.483C183.133 81.2792 182.951 80.9908 183.078 80.6393C183.205 80.2851 183.596 79.9968 183.947 79.9968H202.627C202.977 79.9968 203.159 80.2851 203.031 80.6393C202.904 80.9908 202.513 81.2792 202.163 81.2792Z" fill="#9EC8FF"/>
<path d="M197.682 93.6774H179.002C178.652 93.6774 178.47 93.389 178.597 93.0375C178.725 92.6833 179.115 92.395 179.466 92.395H198.146C198.496 92.395 198.678 92.6833 198.551 93.0375C198.423 93.389 198.032 93.6774 197.682 93.6774Z" fill="#9EC8FF"/>
<path d="M196.755 96.242H178.075C177.725 96.242 177.543 95.9537 177.67 95.6022C177.797 95.248 178.189 94.9596 178.539 94.9596H197.219C197.569 94.9596 197.751 95.248 197.624 95.6022C197.496 95.9537 197.105 96.242 196.755 96.242Z" fill="#9EC8FF"/>
<path d="M179.224 66.1213C179.166 66.1213 179.108 66.113 179.052 66.0993C178.854 66.0444 178.693 65.8989 178.616 65.7094L177.335 62.502C177.199 62.1643 177.362 61.7799 177.697 61.6453C178.032 61.508 178.414 61.6728 178.549 62.0105L179.508 64.4105L187.085 58.5286C187.372 58.3062 187.783 58.3584 188.003 58.6467C188.224 58.935 188.171 59.3497 187.885 59.5721L179.623 65.984C179.507 66.0746 179.367 66.1213 179.224 66.1213Z" fill="#F37168"/>
<path d="M173.97 80.6558C173.913 80.6558 173.855 80.6503 173.798 80.6339C173.601 80.5789 173.44 80.4361 173.363 80.2439L172.081 77.0366C171.946 76.6989 172.108 76.3144 172.443 76.1799C172.779 76.0426 173.16 76.2073 173.295 76.5451L174.255 78.9451L181.832 73.0632C182.118 72.8407 182.529 72.8956 182.75 73.184C182.971 73.4696 182.917 73.8842 182.631 74.1066L174.37 80.5185C174.254 80.6091 174.113 80.6558 173.97 80.6558Z" fill="#F37168"/>
<path d="M297.485 48.3608H225.737L227.591 43.2299H299.34L297.485 48.3608Z" fill="#9EC8FF"/>
<path d="M294.703 56.0598H222.954L224.808 50.9285H296.557L294.703 56.0598Z" fill="#9EC8FF"/>
<path d="M215.175 117.573H162.489C161.8 117.573 161.442 117.007 161.693 116.312C161.943 115.62 162.712 115.052 163.4 115.052H216.086C216.776 115.052 217.133 115.62 216.882 116.312C216.631 117.007 215.865 117.573 215.175 117.573Z" fill="#9EC8FF"/>
<path d="M213.151 123.175H160.464C159.776 123.175 159.417 122.609 159.668 121.914C159.918 121.222 160.687 120.654 161.375 120.654H214.063C214.75 120.654 215.11 121.222 214.859 121.914C214.608 122.609 213.839 123.175 213.151 123.175Z" fill="#9EC8FF"/>
<path d="M262.474 170.543C262.474 169.653 273.12 140.021 265.921 120.945C260.881 107.586 260.085 91.5574 260.085 91.5574C260.085 91.5574 250.271 105.716 256.903 127.354C260.985 140.672 262.651 144.363 263.003 148.281C263.357 152.2 261.413 171.79 261.413 171.79L262.474 170.543Z" fill="#9CD499"/>
<path d="M259.826 92.6063C259.019 94.004 257.453 97.0713 256.316 101.457C254.849 107.105 253.816 116.17 257.213 127.258C258.593 131.759 259.687 135.131 260.568 137.838C262.302 143.182 263.093 145.62 263.33 148.251C263.638 151.678 262.239 166.638 261.838 170.782L262.163 170.403C262.201 170.205 262.316 169.815 262.605 168.835C268.754 148.136 269.768 132.063 265.615 121.06C261.345 109.744 260.104 96.3711 259.826 92.6063ZM261.413 172.119C261.369 172.119 261.326 172.111 261.282 172.094C261.151 172.037 261.072 171.899 261.086 171.757C261.105 171.562 263.025 152.153 262.678 148.311C262.446 145.755 261.664 143.338 259.946 138.044C259.065 135.331 257.969 131.956 256.589 127.453C253.139 116.2 254.197 106.998 255.689 101.259C257.312 95.0283 259.717 91.5162 259.818 91.3679C259.897 91.2525 260.041 91.2031 260.175 91.2416C260.311 91.28 260.404 91.4008 260.412 91.5409C260.42 91.7001 261.263 107.674 266.229 120.827C268.92 127.961 269.46 137.366 267.835 148.786C266.537 157.903 264.222 165.696 263.232 169.024C263.008 169.782 262.812 170.439 262.801 170.557C262.801 170.636 262.774 170.697 262.722 170.757L261.661 172.004C261.596 172.078 261.506 172.119 261.413 172.119Z" fill="#74B570"/>
<path d="M264.773 173.572C263.18 140.623 270.963 122.636 286.88 108.388C302.797 94.1413 303.503 90.4013 303.503 90.4013C303.503 90.4013 301.027 118.182 291.832 127.802C282.634 137.418 269.193 144.541 267.249 149.528C265.302 154.515 266.011 171.257 266.011 171.257L264.773 174.283V173.572Z" fill="#9CD499"/>
<path d="M262.826 176.419C262.651 175.887 266.188 145.609 279.097 143.83C292.009 142.048 295.015 145.077 303.858 143.651C310.168 142.635 315 140.623 315 140.623C315 140.623 311.651 149.207 300.144 152.735C292.009 155.226 281.396 151.132 275.206 152.2C269.016 153.268 265.834 166.624 265.834 166.624L264.773 173.572L262.826 176.419Z" fill="#9CD499"/>
<path d="M264.595 171.941C264.429 171.941 264.285 171.814 264.271 171.641C264.249 171.43 262.419 150.159 271.383 133.873C276.016 125.462 281.071 120.588 285.961 115.873C290.518 111.479 294.821 107.33 298.082 100.759C298.164 100.597 298.36 100.531 298.521 100.614C298.685 100.693 298.75 100.894 298.668 101.056C295.355 107.728 291.011 111.916 286.414 116.348C281.56 121.03 276.539 125.868 271.955 134.194C263.09 150.297 264.901 171.369 264.92 171.581C264.939 171.762 264.805 171.924 264.625 171.941H264.595Z" fill="#74B570"/>
<path d="M263.712 167.668C263.682 167.668 263.649 167.662 263.619 167.654C263.447 167.605 263.346 167.421 263.395 167.245C266.782 155.495 270.668 148.638 275.623 145.67C280.054 143.014 284.635 143.83 289.484 144.692C290.67 144.904 291.897 145.123 293.114 145.283C303.648 146.675 308.788 144.096 308.837 144.072C308.998 143.986 309.194 144.05 309.279 144.212C309.361 144.374 309.298 144.571 309.137 144.657C308.924 144.766 303.795 147.359 293.026 145.936C291.799 145.774 290.564 145.554 289.369 145.343C284.644 144.5 280.182 143.706 275.958 146.235C271.154 149.116 267.36 155.849 264.025 167.429C263.985 167.575 263.854 167.668 263.712 167.668Z" fill="#74B570"/>
<path d="M280.603 121.986C280.504 121.986 280.406 121.942 280.344 121.857C280.232 121.714 280.259 121.505 280.401 121.395C280.464 121.346 286.755 116.518 295.483 114.832C295.661 114.799 295.832 114.915 295.868 115.093C295.901 115.272 295.786 115.445 295.609 115.478C287.03 117.136 280.862 121.87 280.802 121.917C280.742 121.964 280.671 121.986 280.603 121.986Z" fill="#74B570"/>
<path d="M270.608 136.322C270.551 136.322 270.493 136.306 270.442 136.276C270.286 136.182 270.234 135.982 270.327 135.825C274.933 128.005 280.327 126.033 292.088 122.321C292.26 122.266 292.442 122.365 292.497 122.538C292.552 122.711 292.456 122.895 292.284 122.949C280.687 126.61 275.372 128.549 270.889 136.16C270.829 136.265 270.72 136.322 270.608 136.322Z" fill="#74B570"/>
<path d="M267.748 184.523H259.851C257.061 184.523 254.667 182.529 254.143 179.769L251.596 166.358H276.002L273.455 179.769C272.932 182.529 270.537 184.523 267.748 184.523Z" fill="#F39892"/>
<path d="M275.383 169.777H252.392C252.03 169.777 251.738 169.483 251.738 169.118C251.738 168.755 252.03 168.459 252.392 168.459H275.383C275.746 168.459 276.038 168.755 276.038 169.118C276.038 169.483 275.746 169.777 275.383 169.777Z" fill="#D54A41"/>
</svg>
