<svg width="70" height="60" viewBox="0 0 70 60" fill="none" xmlns="http://www.w3.org/2000/svg">
<path d="M10.6562 56.7657C10.7115 57.3689 10.8878 57.8031 11.1854 58.0684C11.4829 58.3294 11.9143 58.4598 12.4796 58.4598C13.1044 58.4598 13.5677 58.2523 13.8694 57.8374C14.1712 57.4181 14.3455 56.7999 14.3922 55.9828H11.4595V54.4234H14.3859C14.3349 53.5891 14.1478 52.9709 13.8248 52.5688C13.506 52.1624 13.0491 51.9591 12.4541 51.9591C11.876 51.9591 11.4425 52.0982 11.1535 52.3763C10.8645 52.6501 10.6966 53.0929 10.6498 53.7046H8.73718C8.83069 52.6822 9.20047 51.8757 9.84652 51.2853C10.4968 50.6949 11.366 50.3997 12.4541 50.3997C13.2276 50.3997 13.9056 50.5837 14.4879 50.9516C15.0744 51.3153 15.5249 51.8394 15.8395 52.5239C16.154 53.2041 16.3113 53.9977 16.3113 54.9047V55.5143C16.3113 56.8919 15.9691 57.985 15.2848 58.7935C14.6048 59.5978 13.6697 60 12.4796 60C11.383 60 10.5032 59.7091 9.84014 59.1272C9.18134 58.5411 8.81581 57.7539 8.74356 56.7657H10.6562Z" fill="#1890FF"/>
<path d="M18.0546 59.8716V50.5281H21.3061C22.4324 50.5281 23.2867 50.7463 23.869 51.1827C24.4513 51.6148 24.7425 52.2501 24.7425 53.0886C24.7425 53.5463 24.6256 53.9506 24.3918 54.3014C24.158 54.648 23.8329 54.9025 23.4164 55.0651C23.8924 55.1849 24.2664 55.4266 24.5384 55.7903C24.8147 56.1539 24.9528 56.5988 24.9528 57.125C24.9528 58.0235 24.6681 58.7037 24.0985 59.1657C23.529 59.6278 22.7172 59.8631 21.6631 59.8716H18.0546ZM19.9672 55.8031V58.3251H21.6057C22.0563 58.3251 22.4069 58.2181 22.6577 58.0042C22.9127 57.786 23.0402 57.4866 23.0402 57.1058C23.0402 56.2502 22.6003 55.8159 21.7205 55.8031H19.9672ZM19.9672 54.4426H21.3826C22.3474 54.4255 22.8298 54.0383 22.8298 53.2811C22.8298 52.8576 22.7066 52.5538 22.46 52.3699C22.2178 52.1816 21.8331 52.0875 21.3061 52.0875H19.9672V54.4426Z" fill="#1890FF"/>
<path d="M28.6981 56.5796V59.8716H26.7854V50.5281H30.4067C31.1037 50.5281 31.7158 50.6564 32.2428 50.9131C32.7741 51.1698 33.1822 51.5356 33.4669 52.0105C33.7517 52.4811 33.8941 53.018 33.8941 53.6212C33.8941 54.5367 33.5817 55.2598 32.9569 55.7903C32.3363 56.3165 31.4756 56.5796 30.3748 56.5796H28.6981ZM28.6981 55.0202H30.4067C30.9125 55.0202 31.2971 54.9004 31.5607 54.6608C31.8284 54.4212 31.9623 54.079 31.9623 53.6341C31.9623 53.1763 31.8284 52.8062 31.5607 52.5239C31.2929 52.2415 30.9231 52.096 30.4513 52.0875H28.6981V55.0202Z" fill="#1890FF"/>
<path d="M41.1713 50.5281H43.0903V59.8716H41.1713V53.6661L37.4544 59.8716H35.5418V50.5281H37.4544V56.7464L41.1713 50.5281Z" fill="#1890FF"/>
<path d="M48.168 56.0534H47.0651V59.8716H45.1524V50.5281H47.0651V54.2694H47.9385L50.2082 50.5281H52.5416L49.679 54.9496L52.8413 59.8716H50.5588L48.168 56.0534Z" fill="#1890FF"/>
<path d="M59.2132 57.9465H55.8597L55.2221 59.8716H53.1883L56.6439 50.5281H58.4162L61.8909 59.8716H59.8571L59.2132 57.9465ZM56.3761 56.3871H58.6968L57.53 52.8896L56.3761 56.3871Z" fill="#1890FF"/>
<path d="M47.5461 12.0059C47.3058 12.3381 46.8426 12.4118 46.5117 12.1712C46.1798 11.9307 46.1061 11.467 46.3465 11.1353C46.5868 10.8036 47.05 10.7299 47.3819 10.9704C47.7128 11.211 47.7864 11.6746 47.5461 12.0059Z" fill="#F68652"/>
<path d="M46.0881 24.2339C45.3071 25.312 43.8012 25.5525 42.7241 24.7708C41.6475 23.989 41.4072 22.4817 42.1882 21.4041C42.9688 20.3256 44.4752 20.0855 45.5518 20.8673C46.6288 21.6485 46.8692 23.1563 46.0881 24.2339Z" fill="#F68652"/>
<path d="M37.5399 31.9274C36.7593 33.005 35.253 33.2455 34.1764 32.4638C33.0993 31.682 32.8595 30.1747 33.64 29.0966C34.4211 28.019 35.9269 27.779 37.004 28.5602C38.0806 29.342 38.3209 30.8493 37.5399 31.9274Z" fill="#F68652"/>
<path d="M23.3959 23.1247C22.4947 24.3687 20.7567 24.6461 19.5144 23.744C18.2717 22.842 17.9945 21.1029 18.8962 19.8589C19.7969 18.6155 21.5349 18.3381 22.7772 19.2401C24.02 20.1417 24.2966 21.8808 23.3959 23.1247Z" fill="#F68652"/>
<path d="M39.8972 15.6176C38.6161 17.3867 36.1446 17.781 34.3771 16.4983C32.6095 15.2155 32.2161 12.7422 33.4972 10.973C34.7787 9.20436 37.2502 8.81007 39.0178 10.0923C40.7848 11.3751 41.1787 13.8489 39.8972 15.6176Z" fill="#F68652"/>
<path d="M27.6242 12.0147C27.3146 12.4419 26.7172 12.537 26.2903 12.2271C25.863 11.9177 25.768 11.3197 26.0781 10.8925C26.3872 10.4647 26.9846 10.3696 27.4115 10.6795C27.8388 10.9894 27.9338 11.5869 27.6242 12.0147Z" fill="#F68652"/>
<path d="M53.3065 7.63492C52.6263 8.57479 51.3132 8.7843 50.3742 8.10291C49.4352 7.42105 49.2259 6.10728 49.9067 5.16741C50.5874 4.22754 51.9005 4.01802 52.8395 4.69989C53.7784 5.38079 53.9873 6.69505 53.3065 7.63492Z" fill="#F68652"/>
<path d="M20.1182 13.3275C19.578 14.0738 18.5348 14.2402 17.7891 13.699C17.0435 13.1577 16.8778 12.1141 17.4185 11.3677C17.9587 10.6218 19.0014 10.4555 19.7471 10.9967C20.4923 11.5374 20.6589 12.5811 20.1182 13.3275Z" fill="#F68652"/>
<path d="M29.4102 3.42531C28.9703 4.03346 28.1204 4.16878 27.5128 3.72794C26.9053 3.28711 26.7701 2.43695 27.2105 1.8288C27.6509 1.22064 28.5003 1.08535 29.1079 1.52619C29.7154 1.96702 29.8506 2.81716 29.4102 3.42531Z" fill="#F68652"/>
<path d="M54.0211 21.2868C53.4799 22.0332 52.4377 22.1995 51.692 21.6583C50.9464 21.1171 50.7802 20.0734 51.3209 19.327C51.8616 18.5812 52.9043 18.4148 53.65 18.956C54.3952 19.4968 54.5618 20.5404 54.0211 21.2868Z" fill="#F68652"/>
<path d="M33.3179 22.9076C32.7776 23.6535 31.735 23.8199 30.9893 23.2786C30.2436 22.7379 30.0774 21.6942 30.6181 20.9479C31.1584 20.2015 32.2011 20.0352 32.9472 20.5764C33.6924 21.1176 33.8586 22.1613 33.3179 22.9076Z" fill="#F68652"/>
<path d="M21.2896 21.3861L35.5722 30.3052L44.0915 22.6592L52.4949 20.1853L51.4493 6.52375L37.5776 1.90006L28.3859 2.78657L18.9528 12.3967L21.2896 21.3861ZM35.6085 30.7193L35.502 30.6534L21.0014 21.5976L20.9849 21.534L18.5841 12.2983L18.6495 12.2309L28.2342 2.46699L37.6149 1.56203L37.6489 1.57318L51.7633 6.27835L52.8472 20.4283L44.2213 22.9676L35.6085 30.7193Z" fill="#F68652"/>
<path d="M37.0005 13.4133L44.0599 22.4483L46.7233 11.7775L37.0005 13.4133ZM44.2169 23.1893L36.3944 13.1776L46.811 11.425L46.8769 11.1621L46.9666 11.2998L51.4832 6.28961L51.7298 6.5127L47.155 11.5874L52.8098 20.216L52.5317 20.3983L47.0155 11.9798L44.2169 23.1893Z" fill="#F68652"/>
<path d="M27.2116 11.3516L36.5462 13.098L37.3985 2.13476L27.2116 11.3516ZM27.1461 11.6775L31.9768 21.566L36.4416 13.4166L27.1461 11.6775ZM21.425 21.3366L31.6967 21.7498L26.8404 11.8094L21.425 21.3366ZM32.1527 21.937L35.4697 29.7988L36.4837 14.0315L32.1527 21.937ZM35.7114 31.2251L31.8561 22.0898L20.8668 21.647L21.001 21.4098L26.6641 11.4476L26.6471 11.4137L26.7203 11.3477L26.7658 11.2682L26.8007 11.2745L37.7944 1.32776L36.8631 13.307L35.7114 31.2251Z" fill="#F68652"/>
<path d="M46.8261 11.6854L37.4764 1.84584L37.7163 1.61645L47.066 11.4565L46.8261 11.6854Z" fill="#F68652"/>
<path d="M18.7867 12.5126L18.7504 12.1818L26.7081 11.3016L28.1461 2.5998L28.4746 2.65412L26.9944 11.6047L18.7867 12.5126Z" fill="#F68652"/>
<path d="M69.7403 22.651C62.2361 23.6811 55.34 26.5788 49.5718 30.6418C43.7857 34.6821 38.8563 39.6462 35 45.2418C39.9295 40.5982 45.6565 36.9333 51.6557 34.4256C57.6458 31.88 64.0153 30.8227 70 31.2878L69.7403 22.651ZM20.4277 30.6418C14.6595 26.5788 7.76341 23.6811 0.259221 22.651L0 31.2878C5.98426 30.8227 12.3537 31.88 18.3443 34.4256C24.3431 36.9333 30.0701 40.5982 35 45.2418C31.1437 39.6462 26.2138 34.6821 20.4277 30.6418Z" fill="#1890FF"/>
<path d="M65.1975 32.5914C58.6745 33.2864 52.68 35.2403 47.6663 37.9799C42.637 40.704 38.3519 44.0513 35 47.8243C39.2851 44.6929 44.263 42.2215 49.4779 40.5309C54.685 38.8145 60.2211 38.1021 65.4233 38.4154L65.1975 32.5914ZM22.3328 37.9799C17.3196 35.2403 11.3251 33.2864 4.80209 32.5914L4.57629 38.4154C9.77854 38.1021 15.3151 38.8145 20.5222 40.5309C25.7366 42.2215 30.715 44.6929 35 47.8243C31.6477 44.0513 27.3626 40.704 22.3328 37.9799Z" fill="#F68652"/>
<path d="M38.9969 2.74682C38.4363 3.52083 37.3549 3.69298 36.5816 3.13235C35.8088 2.57076 35.6358 1.48881 36.1969 0.714802C36.7575 -0.0592091 37.8384 -0.23137 38.6117 0.329739C39.385 0.890848 39.5575 1.97281 38.9969 2.74682Z" fill="#F68652"/>
</svg>
