<svg width="18" height="16" viewBox="0 0 18 16" fill="none" xmlns="http://www.w3.org/2000/svg">
<path fill-rule="evenodd" clip-rule="evenodd" d="M8.81748 15.3781C7.00864 14.2649 5.3259 12.9547 3.79938 11.471C2.72617 10.4025 1.90915 9.09981 1.41089 7.66282C0.514262 4.87525 1.56158 1.68402 4.49258 0.7396C6.03299 0.243696 7.71535 0.527127 9.01339 1.50123C10.3119 0.528313 11.9937 0.244981 13.5342 0.7396C16.4652 1.68402 17.52 4.87525 16.6234 7.66282C16.1252 9.09981 15.3081 10.4025 14.2349 11.471C12.7084 12.9547 11.0257 14.2649 9.21682 15.3781L9.02092 15.5L8.81748 15.3781Z" stroke="#DE012C" stroke-linecap="round" stroke-linejoin="round"/>
<path d="M12.1327 3.87753C13.0204 4.16112 13.6512 4.95812 13.73 5.89585" stroke="#DE012C" stroke-linecap="round" stroke-linejoin="round"/>
</svg>
